<?xml version="1.0" encoding="UTF-8" standalone="no"?>
<svg
   version="1.1"
   height="106"
   width="106"
   id="svg39"
   xmlns:xlink="http://www.w3.org/1999/xlink"
   xmlns="http://www.w3.org/2000/svg"
   xmlns:svg="http://www.w3.org/2000/svg">
  <defs
     id="defs39">
    <linearGradient
       id="linearGradient67">
      <stop
         style="stop-color:#0f0f0f;stop-opacity:1;"
         offset="0"
         id="stop67" />
      <stop
         style="stop-color:#595959;stop-opacity:1;"
         offset="1"
         id="stop68" />
    </linearGradient>
    <linearGradient
       id="linearGradient63">
      <stop
         style="stop-color:#f5be39;stop-opacity:1;"
         offset="0"
         id="stop59" />
      <stop
         style="stop-color:#ffd699;stop-opacity:1;"
         offset="0.4765127"
         id="stop60" />
      <stop
         style="stop-color:#9a5f00;stop-opacity:1;"
         offset="0.70715058"
         id="stop61" />
      <stop
         style="stop-color:#cfa344;stop-opacity:1;"
         offset="0.88576531"
         id="stop62" />
      <stop
         style="stop-color:#ffd587;stop-opacity:1;"
         offset="1"
         id="stop63" />
    </linearGradient>
    <linearGradient
       id="linearGradient58">
      <stop
         style="stop-color:#f5be39;stop-opacity:1;"
         offset="0"
         id="stop54" />
      <stop
         style="stop-color:#ffd699;stop-opacity:1;"
         offset="0.28681973"
         id="stop55" />
      <stop
         style="stop-color:#9a5f00;stop-opacity:1;"
         offset="0.53861827"
         id="stop56" />
      <stop
         style="stop-color:#cfa344;stop-opacity:1;"
         offset="0.88576531"
         id="stop57" />
      <stop
         style="stop-color:#ffd587;stop-opacity:1;"
         offset="1"
         id="stop58" />
    </linearGradient>
    <linearGradient
       id="linearGradient52">
      <stop
         style="stop-color:#ffffff;stop-opacity:1;"
         offset="0"
         id="stop52" />
      <stop
         style="stop-color:#ffffff;stop-opacity:0;"
         offset="1"
         id="stop53" />
    </linearGradient>
    <linearGradient
       id="linearGradient39">
      <stop
         style="stop-color:#f5be39;stop-opacity:1;"
         offset="0"
         id="stop39" />
      <stop
         style="stop-color:#ffd699;stop-opacity:1;"
         offset="0.4765127"
         id="stop41" />
      <stop
         style="stop-color:#9a5f00;stop-opacity:1;"
         offset="0.61530268"
         id="stop42" />
      <stop
         style="stop-color:#cfa344;stop-opacity:1;"
         offset="0.88576531"
         id="stop43" />
      <stop
         style="stop-color:#ffd587;stop-opacity:1;"
         offset="1"
         id="stop40" />
    </linearGradient>
    <linearGradient
       xlink:href="#linearGradient39"
       id="linearGradient45"
       x1="39.05357"
       y1="35.112816"
       x2="39.05357"
       y2="70.73996"
       gradientUnits="userSpaceOnUse"
       gradientTransform="translate(-0.62723845)" />
    <linearGradient
       xlink:href="#linearGradient58"
       id="linearGradient50"
       gradientUnits="userSpaceOnUse"
       x1="49.051197"
       y1="70.112724"
       x2="49.051197"
       y2="34.861919"
       gradientTransform="translate(-0.62723845)" />
    <linearGradient
       xlink:href="#linearGradient52"
       id="linearGradient53"
       x1="51.431999"
       y1="57.30584"
       x2="51.289726"
       y2="37.245346"
       gradientUnits="userSpaceOnUse" />
    <linearGradient
       xlink:href="#linearGradient63"
       id="linearGradient59"
       gradientUnits="userSpaceOnUse"
       gradientTransform="translate(-0.62723845)"
       x1="39.05357"
       y1="35.112816"
       x2="39.05357"
       y2="70.73996" />
    <filter
       style="color-interpolation-filters:sRGB"
       id="filter64"
       x="-0.023606426"
       y="-0.046651102"
       width="1.0472129"
       height="1.0933022">
      <feGaussianBlur
         stdDeviation="0.48566256"
         id="feGaussianBlur64" />
    </filter>
    <radialGradient
       xlink:href="#linearGradient67"
       id="radialGradient68"
       cx="52.99892"
       cy="53.298653"
       fx="52.99892"
       fy="53.298653"
       r="38.682304"
       gradientTransform="matrix(1,0,0,0.99154185,0,0.45080814)"
       gradientUnits="userSpaceOnUse" />
  </defs>
  <path
     style="display:inline;fill:#000000;stroke:#ffffff;stroke-width:0.2;stroke-dasharray:none"
     d="m 52.228729,105.20714 c -0.288167,-0.15454 -0.624348,-0.63644 -1.76693,-2.53278 -0.776079,-1.28806 -1.426684,-2.35571 -1.44579,-2.37256 -0.0191,-0.0169 -0.342632,-0.0627 -0.718949,-0.10183 l -0.684212,-0.0712 -1.566577,1.73298 c -2.015931,2.23006 -2.27978,2.47215 -2.787923,2.558 -0.515212,0.0871 -1.209991,-0.22389 -1.465041,-0.65566 -0.09705,-0.16429 -0.553809,-1.3593 -1.01502,-2.65558 -0.461211,-1.296272 -0.890862,-2.406413 -0.954781,-2.466978 -0.06392,-0.06056 -0.383855,-0.190769 -0.710969,-0.289345 l -0.594752,-0.17923 -2.095048,1.550582 c -2.291217,1.695771 -2.665517,1.905131 -3.220028,1.801111 -0.377974,-0.0709 -0.898047,-0.44389 -1.071892,-0.76872 -0.05562,-0.10392 -0.264484,-1.292943 -0.464152,-2.642276 -0.199669,-1.349333 -0.387535,-2.575757 -0.417482,-2.725387 -0.04064,-0.203083 -0.206839,-0.353277 -0.655556,-0.592441 L 29.99252,94.475439 27.48224,95.6596 c -1.452609,0.685232 -2.640528,1.184424 -2.819412,1.184785 -0.44812,9.06e-4 -0.989667,-0.305834 -1.271798,-0.720365 -0.270664,-0.397683 -0.266569,-0.04077 -0.05296,-4.614989 l 0.06634,-1.420617 -0.53302,-0.446269 -0.53302,-0.44627 -2.520129,0.630356 c -2.865397,0.716717 -3.284251,0.756921 -3.755406,0.36047 -0.382175,-0.321578 -0.622471,-0.753655 -0.622471,-1.119265 0,-0.146244 0.27822,-1.375923 0.618266,-2.73262 0.340046,-1.356697 0.618265,-2.550565 0.618265,-2.653041 0,-0.102475 -0.197072,-0.409232 -0.437938,-0.681681 l -0.437938,-0.495362 -1.957841,0.11154 C 10.912792,82.783218 10.198911,82.767326 9.8036967,82.52635 9.6222565,82.41572 9.3945105,82.172451 9.2975944,81.985753 8.9580092,81.331581 9.0514488,80.992561 10.285776,78.400408 l 1.153085,-2.42154 -0.316781,-0.644026 C 10.947851,74.980627 10.746904,74.689992 10.675532,74.688986 10.60416,74.68798 9.3747492,74.507718 7.9435078,74.288405 6.2669838,74.031506 5.2479963,73.82855 5.0791102,73.717892 4.6182191,73.415904 4.3985614,72.95004 4.4415464,72.365704 4.4776207,71.875311 4.5780224,71.711547 6.1077966,69.647906 L 7.7356595,67.451945 7.5570536,66.792122 C 7.4566061,66.421039 7.3019611,66.091364 7.2036622,66.038756 7.1075302,65.987307 6.0349348,65.590216 4.8201169,65.15633 3.605299,64.722444 2.4613858,64.297217 2.2780875,64.211381 1.6517722,63.918087 1.3482252,63.021515 1.6269978,62.288287 1.6806808,62.14709 2.631264,61.20899 3.7394051,60.203619 c 2.009093,-1.822767 2.0148018,-1.829176 2.0148018,-2.26169 0,-1.023477 0.097014,-0.926866 -2.4941248,-2.483753 C 1.2281903,54.237314 0.86340244,53.980206 0.69512622,53.650357 0.46274057,53.194844 0.44780656,52.855797 0.64023599,52.404185 0.84590722,51.921495 1.0484478,51.772526 3.4555143,50.33353 l 2.1837325,-1.305482 0.065727,-0.438295 C 5.8473227,47.640499 5.8582524,47.656565 3.796366,45.784266 2.7478907,44.832196 1.8032956,43.919985 1.6972657,43.75713 1.5483554,43.528413 1.5152437,43.331282 1.5517644,42.89089 1.6280135,41.971426 1.7870707,41.867577 4.7649517,40.792984 6.1746185,40.284294 7.3364579,39.855097 7.3468169,39.839213 7.4758146,39.64142 7.7178412,38.511005 7.6539761,38.404589 7.6077919,38.327633 7.1058985,37.638676 6.5386574,36.873573 4.3927838,33.979185 4.4145935,34.013954 4.4150168,33.488044 4.4154842,32.907225 4.690213,32.415554 5.14598,32.179868 c 0.1876388,-0.09703 1.4521343,-0.337508 2.9514812,-0.5613 1.4427578,-0.215346 2.6584968,-0.431016 2.7016418,-0.479267 0.04314,-0.04825 0.207965,-0.330673 0.366267,-0.627605 l 0.287821,-0.539877 -1.163254,-2.448407 C 9.0311272,24.873879 8.9401873,24.533741 9.3178208,23.88745 9.4264466,23.701546 9.6910074,23.458293 9.9057336,23.346889 10.284575,23.150338 10.378659,23.148181 13.080463,23.274094 l 2.784319,0.129759 0.296082,-0.349433 c 0.600564,-0.708781 0.60443,-0.562361 -0.08794,-3.330412 -0.347907,-1.390915 -0.632386,-2.680303 -0.632174,-2.865306 7.94e-4,-0.692703 0.725247,-1.417156 1.41795,-1.41795 0.185003,-2.12e-4 1.474391,0.284267 2.865306,0.632174 2.768051,0.692368 2.621631,0.688502 3.330412,0.08794 l 0.349433,-0.296082 -0.129759,-2.784319 c -0.125913,-2.701804 -0.123756,-2.795888 0.07279,-3.1747294 0.111404,-0.2147262 0.354657,-0.479287 0.540561,-0.5879128 0.643486,-0.3759946 0.986664,-0.2846169 3.641741,0.9696832 l 2.454185,1.159397 0.534098,-0.284676 c 0.293754,-0.156572 0.573576,-0.319977 0.621827,-0.363122 0.04825,-0.04315 0.263921,-1.258884 0.479267,-2.7016418 0.223792,-1.4993469 0.464268,-2.7638424 0.5613,-2.9514812 0.234599,-0.4536649 0.727662,-0.730495 1.301922,-0.7309632 0.531782,-4.337e-4 0.516903,-0.00963 3.185694,1.9689421 0.878452,0.6512614 1.660149,1.222334 1.737105,1.2690501 0.106736,0.064795 1.235023,-0.1760155 1.434624,-0.3061921 0.01588,-0.010359 0.445081,-1.1721984 0.953771,-2.5818652 1.074593,-2.977881 1.178442,-3.1369382 2.097906,-3.2131873 0.439727,-0.036466 0.638654,-0.00318 0.869673,0.1455013 0.164744,0.1060299 1.075878,1.050625 2.024743,2.0991003 1.86757,2.063626 1.850081,2.0517233 2.804447,1.9086073 l 0.438295,-0.065727 1.305482,-2.1837325 c 1.438996,-2.4070665 1.587965,-2.60960708 2.070655,-2.81527831 0.451612,-0.19242943 0.790659,-0.17749542 1.246172,0.0548902 0.329849,0.16827622 0.586957,0.53306411 1.807819,2.56495591 1.556584,2.5906353 1.460542,2.4941248 2.482025,2.4941248 0.430237,0 0.439541,-0.00829 2.260325,-2.0142829 1.00557,-1.1078556 1.944449,-2.0584389 2.086396,-2.1124073 0.736348,-0.279959 1.628801,0.023132 1.928641,0.654996 0.08813,0.1857322 0.510562,1.3244128 0.938725,2.5304013 0.428164,1.2059886 0.823374,2.2765926 0.878245,2.3791201 0.05974,0.1116296 0.364468,0.2580653 0.759589,0.3650195 l 0.659823,0.1786059 2.195961,-1.6278629 c 2.063641,-1.5297742 2.227405,-1.6301759 2.717798,-1.6662502 0.584336,-0.042985 1.0502,0.1766727 1.352188,0.6375638 0.110658,0.1688861 0.313614,1.1878736 0.570513,2.8643976 0.219313,1.4312414 0.399575,2.6606517 0.400581,2.7320237 10e-4,0.07137 0.292172,0.272943 0.647036,0.447934 l 0.645208,0.318166 2.420359,-1.154713 c 2.591343,-1.2362856 2.92892,-1.3294657 3.584164,-0.9893241 0.186698,0.096916 0.429967,0.3246621 0.540597,0.5061023 0.240976,0.3952138 0.256868,1.1090948 0.08992,4.0394838 l -0.11154,1.957841 0.495362,0.437938 c 0.272449,0.240866 0.579206,0.437938 0.681681,0.437938 0.102476,0 1.296344,-0.278219 2.653041,-0.618265 1.356697,-0.340046 2.586376,-0.618266 2.73262,-0.618266 0.36561,0 0.797687,0.240296 1.119265,0.622471 0.396451,0.471155 0.356247,0.890009 -0.36047,3.755406 l -0.630356,2.520129 0.44627,0.53302 0.446269,0.53302 1.394856,-0.06511 c 4.602779,-0.214857 4.243172,-0.218865 4.64075,0.05173 0.414531,0.282131 0.721271,0.823678 0.720365,1.271798 -3.61e-4,0.178908 -0.500121,1.368008 -1.186348,2.822728 l -1.185724,2.513596 0.323337,0.577732 c 0.177836,0.317753 0.335453,0.5917 0.35026,0.608773 0.01481,0.01707 1.240685,0.214007 2.724171,0.437632 1.483487,0.223626 2.782198,0.452055 2.886018,0.507619 0.32468,0.173762 0.69765,0.693906 0.76855,1.071801 0.10365,0.552518 -0.0975,0.911447 -1.798625,3.209941 l -1.554554,2.100415 0.179973,0.597112 c 0.09898,0.328412 0.229525,0.64941 0.290089,0.713329 0.06056,0.06392 1.170706,0.49357 2.466977,0.954781 1.29628,0.461211 2.49129,0.917969 2.65558,1.01502 0.43341,0.256023 0.74274,0.949662 0.65502,1.468846 -0.0852,0.504358 -0.35231,0.794862 -2.61313,2.842067 l -1.6857,1.526431 0.0628,0.457844 c 0.0345,0.251813 0.0627,0.560388 0.0627,0.685722 0,0.18726 0.42236,0.481652 2.36947,1.651574 1.35611,0.814821 2.44408,1.53751 2.54394,1.689819 0.096,0.146368 0.19152,0.497973 0.21237,0.781345 0.0629,0.855087 -0.0823,0.992239 -2.73675,2.584753 l -2.36605,1.419491 -0.0705,0.71587 c -0.0388,0.393729 -0.0324,0.750615 0.0143,0.793081 0.0466,0.04247 0.91947,0.828982 1.93961,1.747814 2.04596,1.84278 2.37369,2.266894 2.26946,2.936919 -0.0932,0.598882 -0.47526,1.036021 -1.10965,1.269484 -0.29785,0.109613 -1.47854,0.535728 -2.62375,0.946921 l -2.082209,0.747626 -0.218117,0.655439 c -0.119964,0.360492 -0.182146,0.7145 -0.138182,0.786685 0.04396,0.07219 0.751692,1.035459 1.572728,2.140608 0.82104,1.10515 1.55449,2.186534 1.62989,2.403076 0.2454,0.704712 -0.15101,1.523309 -0.87424,1.805365 -0.1544,0.06021 -1.439974,0.278256 -2.856833,0.484535 -1.416858,0.20628 -2.579552,0.382402 -2.583765,0.391384 -0.0042,0.009 -0.15573,0.283701 -0.336706,0.610486 l -0.329048,0.594156 1.136268,2.411849 c 0.624947,1.326517 1.163983,2.550426 1.197857,2.719798 0.09058,0.452891 -0.128485,0.992918 -0.554518,1.36698 l -0.375366,0.329576 -2.065644,-0.06961 C 92.67418,82.650952 91.37368,82.59199 90.920286,82.558211 l -0.824355,-0.06141 -0.459356,0.546039 -0.459356,0.546038 0.641173,2.53222 c 0.352644,1.39272 0.640502,2.708409 0.639683,2.923752 -0.0031,0.804228 -0.59753,1.40794 -1.392586,1.414233 -0.226697,0.0018 -1.553873,-0.284037 -2.949279,-0.63518 l -2.537103,-0.638444 -0.541155,0.455239 -0.541156,0.455238 0.06141,0.824355 c 0.03378,0.453394 0.09274,1.753894 0.131028,2.889998 l 0.06961,2.065644 -0.329576,0.375366 c -0.375421,0.42758 -0.914364,0.645041 -1.371868,0.55354 -0.17206,-0.03441 -1.389608,-0.572019 -2.705663,-1.194683 L 75.958909,94.47804 75.35062,94.802357 c -0.33456,0.178375 -0.615193,0.328464 -0.62363,0.333533 -0.0084,0.0051 -0.185419,1.168463 -0.393293,2.585321 -0.207874,1.416859 -0.42636,2.702429 -0.485525,2.856829 -0.27648,0.72151 -1.098487,1.11989 -1.803457,0.87403 -0.216542,-0.0755 -1.297926,-0.80941 -2.403076,-1.630856 -1.105149,-0.821456 -2.062745,-1.52558 -2.12799,-1.564721 -0.06525,-0.03914 -0.418527,0.02146 -0.785071,0.134679 l -0.666444,0.205843 -0.749239,2.086675 c -0.412081,1.14768 -0.838922,2.33038 -0.948535,2.62823 -0.233463,0.63439 -0.670602,1.01649 -1.269484,1.10965 -0.753584,0.11722 -1.057789,-0.15602 -4.686022,-4.20907 -0.04176,-0.0466 -0.398063,-0.0531 -0.791792,-0.0143 l -0.71587,0.0705 -1.419491,2.36605 c -1.031127,1.71871 -1.508415,2.42027 -1.744512,2.56423 -0.411448,0.25088 -1.049377,0.25431 -1.508467,0.008 z m 2.664912,-13.823429 c 4.8382,-0.268533 8.949014,-1.220318 13.399321,-3.10237 0.69347,-0.293271 1.096797,-0.52354 1.152308,-0.657879 0.04697,-0.113675 0.320647,-1.713704 0.608168,-3.55562 0.287521,-1.841916 0.597793,-3.579303 0.689494,-3.860861 0.345293,-1.060179 1.552508,-1.909617 2.713933,-1.909617 0.395857,0 6.516726,0.910598 7.281078,1.083201 0.18309,0.04134 0.394486,-0.143283 1.132106,-0.988757 5.827855,-6.679994 9.050931,-14.663606 9.512595,-23.562852 0.08817,-1.699683 0.01731,-4.381429 -0.162038,-6.131949 l -0.06757,-0.65955 -0.528551,-0.284182 c -0.290703,-0.1563 -1.757353,-0.904238 -3.259223,-1.662086 -1.50187,-0.757847 -2.894527,-1.513997 -3.094793,-1.680334 -0.200265,-0.166337 -0.50167,-0.550768 -0.669787,-0.85429 -0.268158,-0.484137 -0.305669,-0.654104 -0.305669,-1.385037 v -0.833177 l 1.733566,-3.419901 1.733566,-3.419902 -0.48584,-0.847612 c -1.714986,-2.992017 -4.422165,-6.396976 -6.96909,-8.765386 -2.962791,-2.755127 -5.97554,-4.809469 -9.693328,-6.609715 -2.673733,-1.294688 -5.872782,-2.403481 -8.318822,-2.88331 -0.481732,-0.0945 -0.961325,-0.196438 -1.065761,-0.226531 -0.143711,-0.04141 -0.857845,0.609319 -2.936762,2.676013 -1.857423,1.846503 -2.880341,2.788624 -3.159053,2.909528 -0.250629,0.108722 -0.694886,0.182415 -1.133487,0.188021 -1.225554,0.01567 -1.39348,-0.103126 -4.439981,-3.140878 L 45.871789,15.118169 44.48977,15.427498 C 34.106867,17.751438 24.917011,24.488611 19.686182,33.61125 l -0.517127,0.901878 1.742205,3.437218 c 1.716292,3.386094 1.742205,3.447056 1.742205,4.098628 0,0.856506 -0.226723,1.502883 -0.726178,2.070292 -0.340602,0.386946 -0.898695,0.710199 -3.676093,2.129232 -1.800989,0.920164 -3.326388,1.738102 -3.389775,1.81764 -0.378697,0.475187 -0.441157,6.993066 -0.09221,9.622375 1.078708,8.128038 4.319577,15.205427 9.682304,21.144155 l 0.529909,0.586825 3.498774,-0.568066 c 4.541265,-0.737326 5.032046,-0.709812 6.044034,0.338843 0.634964,0.657971 0.749988,1.07271 1.363515,4.916401 0.315507,1.976621 0.57365,3.60619 0.57365,3.621265 0,0.01507 0.498476,0.247198 1.107725,0.515831 3.975717,1.752992 8.70065,2.873679 13.206222,3.132329 2.029453,0.116505 2.152328,0.116732 4.118298,0.0076 z m -24.1392,-3.378972 c 0.679282,-0.34823 1.036348,-0.707445 1.373116,-1.381377 0.444263,-0.889049 0.444263,-1.748928 0,-2.637977 -0.508921,-1.018442 -1.329046,-1.564762 -2.467082,-1.64343 -2.079959,-0.143779 -3.63342,1.811585 -3.045616,3.83356 0.226189,0.778062 0.984506,1.608156 1.744373,1.909485 0.68753,0.272642 1.778098,0.236098 2.395209,-0.08026 z m 46.988181,0 c 0.679282,-0.34823 1.036349,-0.707445 1.373117,-1.381377 0.752963,-1.506813 0.162699,-3.234254 -1.373117,-4.018504 -0.63932,-0.326463 -1.621225,-0.363021 -2.350828,-0.08752 -1.087271,0.410551 -1.93751,1.63359 -1.93751,2.78704 0,1.11976 0.846111,2.365903 1.88626,2.778064 0.694639,0.275252 1.782213,0.240073 2.402078,-0.0777 z M 16.394367,43.230847 c 2.118865,-1.241738 2.008431,-4.252919 -0.195769,-5.337998 -0.692275,-0.340792 -1.840092,-0.339603 -2.509983,0.0026 -2.264703,1.156881 -2.310398,4.23816 -0.07958,5.366167 0.599309,0.303038 0.70698,0.323852 1.480169,0.286127 0.671735,-0.03278 0.925476,-0.09438 1.305164,-0.316895 z M 92.0297,43.409144 c 0.621065,-0.211618 1.300785,-0.818159 1.62223,-1.447579 0.214768,-0.420535 0.25627,-0.645424 0.254379,-1.378399 -0.0027,-1.062587 -0.194995,-1.493099 -0.983268,-2.201824 -2.450281,-2.203013 -6.166775,0.793403 -4.55266,3.670573 0.321532,0.573132 1.068486,1.220458 1.609322,1.394671 0.499063,0.160757 1.523212,0.142052 2.049997,-0.03744 z M 54.036971,15.782856 c 0.707622,-0.241111 1.501095,-1.050109 1.74234,-1.77643 0.367877,-1.107573 0.07958,-2.346648 -0.735675,-3.161907 -0.575961,-0.575961 -1.181367,-0.809797 -2.095159,-0.809248 -0.6373,3.84e-4 -0.865416,0.04885 -1.300764,0.276363 -1.456055,0.760937 -2.057469,2.437193 -1.402928,3.910228 0.29858,0.671951 0.687161,1.070048 1.384703,1.418614 0.744,0.371781 1.587776,0.421682 2.407483,0.14238 z"
     id="path79" />
  <g
     id="layer1"
     style="display:inline">
    <path
       style="opacity:1;fill:url(#radialGradient68);fill-opacity:1;stroke:#000000;stroke-width:0.5;stroke-dasharray:none"
       d="m 49.493137,91.283164 c -2.850164,-0.265472 -5.925673,-0.917432 -8.660928,-1.835983 -1.702441,-0.571712 -4.285291,-1.629142 -4.290244,-1.756445 -0.0017,-0.04368 -0.265914,-1.713049 -0.587144,-3.709716 -0.411056,-2.554997 -0.660005,-3.779171 -0.84047,-4.132891 -0.344671,-0.675576 -1.029704,-1.218773 -1.836569,-1.456305 -0.657103,-0.193444 -0.711663,-0.188749 -4.295859,0.369615 -1.996667,0.31105 -3.715036,0.564454 -3.818597,0.563119 -0.397666,-0.0051 -3.162269,-3.467297 -4.675445,-5.85516 -4.246419,-6.701048 -6.343335,-14.826659 -5.850478,-22.670773 0.07726,-1.229714 0.186274,-2.353239 0.242242,-2.496726 0.07199,-0.184568 1.060038,-0.749926 3.377627,-1.932672 3.534963,-1.804015 4.042378,-2.177928 4.35032,-3.205747 0.351463,-1.173079 0.287787,-1.380741 -1.57589,-5.139334 l -1.726689,-3.482325 0.300575,-0.569701 c 0.522185,-0.989734 2.356254,-3.669528 3.438249,-5.023693 C 28.437184,22.19841 36.352638,17.283056 44.78985,15.444543 l 1.044695,-0.227644 2.585609,2.589677 c 2.940382,2.945007 3.290549,3.188679 4.582277,3.188679 1.29166,0 1.641969,-0.243747 4.581273,-3.187675 l 2.584606,-2.588673 1.045698,0.228916 c 9.671611,2.117238 18.339536,8.062703 23.789129,16.317332 0.549238,0.831945 1.156564,1.799268 1.349612,2.149607 l 0.350999,0.636979 -1.687618,3.356355 c -1.872328,3.723709 -1.990079,4.117351 -1.591017,5.318813 0.330053,0.993696 0.832977,1.358496 4.383637,3.179702 2.843082,1.458272 3.252577,1.704056 3.33164,1.999682 0.04958,0.185381 0.149564,1.300277 0.222192,2.477549 0.46468,7.532401 -1.439947,15.22349 -5.42426,21.903742 -1.412478,2.368217 -4.654638,6.531531 -5.090634,6.536974 -0.106945,0.0013 -1.828083,-0.252069 -3.824749,-0.563119 -3.584197,-0.558364 -3.638757,-0.563059 -4.29586,-0.369615 -0.806613,0.237458 -1.491615,0.78049 -1.837038,1.456305 -0.181038,0.354195 -0.42965,1.574457 -0.842023,4.132891 -0.321825,1.996667 -0.585829,3.665975 -0.586675,3.709574 -0.0027,0.138307 -2.779762,1.258317 -4.57053,1.843317 -2.852158,0.931728 -5.563634,1.486082 -8.621109,1.762564 -1.62544,0.146985 -5.129493,0.140102 -6.776567,-0.01331 z"
       id="path65" />
    <path
       id="path50"
       style="font-weight:bold;font-size:53.3333px;font-family:'Liberation Serif';-inkscape-font-specification:'Liberation Serif Bold';display:inline;fill:url(#linearGradient53);fill-opacity:1;stroke:url(#linearGradient45)"
       d="m 31.310547,35.230469 -5.943359,15.601562 a 54.703964,15.223209 0 0 0 1.980468,0.333985 l 4.748047,-12.748047 5.068359,13.976562 a 54.703964,15.223209 0 0 0 7.683594,0.544922 L 38.126953,35.230469 Z m 19.835937,0.285156 v 0.923828 l 3.957032,0.673828 v 16.087891 a 54.703964,15.223209 0 0 0 7.140625,-0.15625 V 37.105469 l 4.480468,-0.675781 v -0.914063 z m 23.984375,0 v 0.912109 l 4.6875,0.673828 v 14.386719 a 54.703964,15.223209 0 0 0 2.166016,-0.357422 V 37.113281 l 3.958984,-0.673828 v -0.923828 z" />
    <path
       id="path63"
       style="font-weight:bold;font-size:53.3333px;font-family:'Liberation Serif';-inkscape-font-specification:'Liberation Serif Bold';display:inline;opacity:0.740845;fill:#000000;stroke:#000000;filter:url(#filter64)"
       d="M 31.941223,35.69513 19.519349,68.298645 16.91388,69.00177 v 1.900391 h 10.625 V 69.00177 l -4.478516,-0.703125 3.203125,-9.037109 h 13.41211 l 3.332031,9.037109 -4.035157,0.703125 v 1.900391 H 54.519349 V 69.00177 L 51.863099,68.298645 39.492005,35.69513 Z m 19.669922,0.285156 v 1.902344 l 3.957032,0.675781 V 58.68927 c 0,4.114577 1.241973,7.265629 3.724609,9.453125 2.499996,2.170136 6.085727,3.25586 10.755859,3.25586 0.270182,0 0.536446,-0.0053 0.798828,-0.01367 0.787149,-0.02523 1.538901,-0.08854 2.25586,-0.189453 2.867834,-0.403645 5.17318,-1.412764 6.917969,-3.027344 2.326385,-2.152775 3.490234,-5.24176 3.490234,-9.269531 V 38.558411 L 87.47052,37.88263 v -1.902344 h -11.875 v 1.902344 l 4.6875,0.675781 v 20.546875 c 0,2.829857 -0.71311,4.975263 -2.136718,6.433594 -1.067707,1.093748 -2.467451,1.777344 -4.199219,2.050781 -0.288628,0.04557 -0.585504,0.07878 -0.892578,0.101562 -0.307074,0.02279 -0.623699,0.03516 -0.949219,0.03516 -2.72569,0 -4.801,-0.747181 -6.224609,-2.240235 -1.406248,-1.493053 -2.109375,-3.636506 -2.109375,-6.43164 V 38.558411 L 68.25177,37.88263 v -1.902344 z m -18.52539,4.974609 5.599609,15.44336 H 27.331849 Z" />
    <path
       id="path47"
       style="font-weight:bold;font-size:53.3333px;font-family:'Liberation Serif';-inkscape-font-specification:'Liberation Serif Bold';display:inline;fill:url(#linearGradient50);stroke:url(#linearGradient59)"
       d="m 30.945312,34.699219 -12.421874,32.603515 -2.605469,0.703125 v 1.900391 h 10.625 v -1.900391 l -4.478516,-0.703125 3.203125,-9.037109 h 13.41211 l 3.332031,9.037109 -4.035157,0.703125 V 69.90625 H 53.523438 V 68.005859 L 50.867188,67.302734 38.496094,34.699219 Z m 19.669922,0.285156 v 1.902344 l 3.957032,0.675781 v 20.130859 c 0,4.114577 1.241973,7.265629 3.724609,9.453125 2.499996,2.170136 6.085727,3.25586 10.755859,3.25586 0.270182,0 0.536446,-0.0053 0.798828,-0.01367 0.787149,-0.02523 1.538901,-0.08854 2.25586,-0.189453 2.867834,-0.403645 5.17318,-1.412764 6.917969,-3.027344 2.326385,-2.152775 3.490234,-5.24176 3.490234,-9.269531 V 37.5625 l 3.958984,-0.675781 v -1.902344 h -11.875 v 1.902344 l 4.6875,0.675781 v 20.546875 c 0,2.829857 -0.71311,4.975263 -2.136718,6.433594 -1.067707,1.093748 -2.467451,1.777344 -4.199219,2.050781 -0.288628,0.04557 -0.585504,0.07878 -0.892578,0.101562 -0.307074,0.02279 -0.623699,0.03516 -0.949219,0.03516 -2.72569,0 -4.801,-0.747181 -6.224609,-2.240235 -1.406248,-1.493053 -2.109375,-3.636506 -2.109375,-6.43164 V 37.5625 l 4.480468,-0.675781 v -1.902344 z m -18.52539,4.974609 5.599609,15.44336 H 26.335938 Z" />
  </g>
</svg>
